<svg id="Layer_1" data-name="Layer 1" xmlns="http://www.w3.org/2000/svg" viewBox="0 0 497.38 79.66"><defs><style>.cls-1{fill:#333;}</style></defs><path class="cls-1" d="M399.8,80.63c-5.51,0-9.08-3-9.08-7.35,0-4.87,4.54-8,13.4-9l10.38-1.19v2.27c0,8.86-5.51,15.24-14.7,15.24m90.14-10.38a8.54,8.54,0,1,0,0-17.07,8.54,8.54,0,1,0,0,17.07m-31.13,0a8.54,8.54,0,1,0,0-17.07,8.54,8.54,0,1,0,0,17.07m-219-14.81c1.73-8.1,7-12.64,14.48-12.64,8.65,0,13.51,5.3,14.27,12.64Zm-69.17,33.4h11.78V34.37H170.67Zm232-55.33c-11.56,0-20.85,7-22.58,17.72l10.59,2c.75-6.49,5.4-10.38,12-10.38,7.14,0,11.79,4.11,11.79,10.81v.75l-10.27,1.08c-16.75,1.73-25.08,7.46-25.08,18.16,0,9.3,7.46,16.11,18.27,16.11,7.24,0,13.94-3.68,17.08-9.19v8.32h11.56V54.91c0-13.62-9.51-21.4-23.35-21.4M289.13,88.84H300.9V61.28c0-10.37,4.65-17.61,12.76-17.61,6.92,0,10.7,4.53,10.7,11.34V88.84H336V61.28c0-10.48,4.65-17.61,12.75-17.61,6.92,0,10.81,4.53,10.81,11.34V88.84h11.78V52.09c0-11-7.56-18.58-19.24-18.58a19.75,19.75,0,0,0-17.94,10.8c-2.27-7-8.53-10.8-17.29-10.8-7.89,0-13.08,4.1-16,10.05V34.37H289.13Zm-8-29.29c0-13.29-9.3-26-26.81-26-17.29,0-26.58,13.4-26.58,28.09s9.83,28.11,27.12,28.11c12.76,0,22.05-6.06,25-16.54L268.7,70.36c-1.41,5.94-6.49,9.29-13.62,9.29-8.65,0-14.7-5.83-15.78-15.23h41.61c.11-1,.22-3.25.22-4.87m-170-25.07a17.74,17.74,0,0,0-6.05-1c-6.59,0-13.73,4.75-16.65,11.24V34.37H76.64V88.84H88.42V68.52c0-16.86,7-24,15-24a18,18,0,0,1,7,1.3ZM25.2,60.09,36.65,29.83,48.11,60.09ZM224.39,77.93a16,16,0,0,1-6.6,1.29c-4.43,0-7.45-2.81-7.45-8.21V44.42h14V34.37h-14V18.16H198.56V34.37H189V44.42h9.52V71.66c0,12.43,7.67,18,17.94,18a28,28,0,0,0,8.64-1.3ZM58.92,88.84H72L42.49,13.19H30.71L1.31,88.84H14.39L21.09,71H52.22Zm93.92,0h14.37l-24.31-33,22.58-21.51H150.24L127.76,54.91V12.32H115.87V88.84h11.89V70.14l6.81-6.37Zm23.67-63.55a7.62,7.62,0,1,0,0-15.24,7.48,7.48,0,0,0-7.57,7.68,7.45,7.45,0,0,0,7.57,7.56" transform="translate(-1.31 -10.05)"/></svg>